<svg xmlns="http://www.w3.org/2000/svg" viewBox="0 0 235.32 235.32">
<path d="M201.09 30a6 6 0 0 0 4.62-5.84V6a6 6 0 0 0-6-6H35.61a6 6 0 0 0-6 6v18.16A6 6 0 0 0 34.22 30a103.2 103.2 0 0 0 45.68 80.07l11.32 7.59-11.32 7.59a103.2 103.2 0 0 0-45.68 80.07 6 6 0 0 0-4.63 5.84v18.16a6 6 0 0 0 6 6H199.7a6 6 0 0 0 6-6v-18.16a6 6 0 0 0-4.62-5.84 103.2 103.2 0 0 0-45.68-80.07l-11.33-7.59 11.33-7.59A103.2 103.2 0 0 0 201.09 30zM41.6 12h152.11v6.16H41.6V12zm152.11 211.32H41.6v-6.16h152.11v6.16zm-63.75-110.64a6 6 0 0 0 0 9.97l18.77 12.57a91.23 91.23 0 0 1 40.33 69.94H46.25a91.23 91.23 0 0 1 40.33-69.94l18.77-12.57a6 6 0 0 0 0-9.97l-18.77-12.57a91.23 91.23 0 0 1-40.33-69.94h142.8a91.23 91.23 0 0 1-40.32 69.94l-18.77 12.57z"/>
<path d="M133.31 82.66h-31.3a6 6 0 0 0-4 10.47l15.65 14a5.99 5.99 0 0 0 8 0l15.65-14a6 6 0 0 0-4-10.47zm-15.9 57.92-15.22 9.78a48.02 48.02 0 0 0-21.29 39.89h76.51a48.02 48.02 0 0 0-21.3-39.9l-15.2-9.77a3.4 3.4 0 0 0-3.5 0z"/>
</svg>
